solid DIY VR Buckle
   facet normal 0.000000e+00 1.000000e+00 0.000000e+00
      outer loop
         vertex 1.600000e+01 6.000000e+00 4.000001e+00
         vertex 1.600000e+01 6.000000e+00 3.000000e+01
         vertex 1.800000e+01 6.000000e+00 3.000000e+01
      endloop
   endfacet
   facet normal 0.000000e+00 1.000000e+00 0.000000e+00
      outer loop
         vertex 1.092020e+00 6.000000e+00 3.378201e+01
         vertex 4.000001e+00 6.000000e+00 3.000000e+01
         vertex 8.244310e-01 6.000000e+00 3.361803e+01
      endloop
   endfacet
   facet normal 0.000000e+00 1.000000e+00 0.000000e+00
      outer loop
         vertex 8.244310e-01 6.000000e+00 3.361803e+01
         vertex 4.000001e+00 6.000000e+00 3.000000e+01
         vertex 5.857870e-01 6.000000e+00 3.341421e+01
      endloop
   endfacet
   facet normal 0.000000e+00 1.000000e+00 0.000000e+00
      outer loop
         vertex 3.341421e+01 6.000000e+00 5.857870e-01
         vertex 3.317557e+01 6.000000e+00 3.819671e-01
         vertex 3.000000e+01 6.000000e+00 4.000001e+00
      endloop
   endfacet
   facet normal 0.000000e+00 1.000000e+00 0.000000e+00
      outer loop
         vertex 3.000000e+01 6.000000e+00 4.000001e+00
         vertex 3.317557e+01 6.000000e+00 3.819671e-01
         vertex 3.290798e+01 6.000000e+00 2.179872e-01
      endloop
   endfacet
   facet normal 0.000000e+00 1.000000e+00 0.000000e+00
      outer loop
         vertex 3.000000e+01 6.000000e+00 4.000001e+00
         vertex 3.290798e+01 6.000000e+00 2.179872e-01
         vertex 3.261803e+01 6.000000e+00 9.788759e-02
      endloop
   endfacet
   facet normal 0.000000e+00 1.000000e+00 -0.000000e+00
      outer loop
         vertex 5.857870e-01 6.000000e+00 5.857870e-01
         vertex 3.819671e-01 6.000000e+00 8.244310e-01
         vertex 4.000001e+00 6.000000e+00 4.000001e+00
      endloop
   endfacet
   facet normal 0.000000e+00 1.000000e+00 0.000000e+00
      outer loop
         vertex 4.000001e+00 6.000000e+00 4.000001e+00
         vertex 3.819671e-01 6.000000e+00 8.244310e-01
         vertex 2.179872e-01 6.000000e+00 1.092020e+00
      endloop
   endfacet
   facet normal 0.000000e+00 1.000000e+00 0.000000e+00
      outer loop
         vertex 4.000001e+00 6.000000e+00 4.000001e+00
         vertex 2.179872e-01 6.000000e+00 1.092020e+00
         vertex 9.788759e-02 6.000000e+00 1.381967e+00
      endloop
   endfacet
   facet normal 0.000000e+00 1.000000e+00 0.000000e+00
      outer loop
         vertex 2.000001e+00 6.000000e+00 0.000000e+00
         vertex 1.800000e+01 6.000000e+00 4.000001e+00
         vertex 3.200000e+01 6.000000e+00 0.000000e+00
      endloop
   endfacet
   facet normal 0.000000e+00 1.000000e+00 0.000000e+00
      outer loop
         vertex 3.200000e+01 6.000000e+00 0.000000e+00
         vertex 1.800000e+01 6.000000e+00 4.000001e+00
         vertex 3.000000e+01 6.000000e+00 4.000001e+00
      endloop
   endfacet
   facet normal 0.000000e+00 1.000000e+00 -0.000000e+00
      outer loop
         vertex 3.200000e+01 6.000000e+00 0.000000e+00
         vertex 3.000000e+01 6.000000e+00 4.000001e+00
         vertex 3.231287e+01 6.000000e+00 2.462417e-02
      endloop
   endfacet
   facet normal 0.000000e+00 1.000000e+00 -0.000000e+00
      outer loop
         vertex 3.231287e+01 6.000000e+00 2.462417e-02
         vertex 3.000000e+01 6.000000e+00 4.000001e+00
         vertex 3.261803e+01 6.000000e+00 9.788759e-02
      endloop
   endfacet
   facet normal 0.000000e+00 1.000000e+00 0.000000e+00
      outer loop
         vertex 3.341421e+01 6.000000e+00 3.341421e+01
         vertex 3.361803e+01 6.000000e+00 3.317557e+01
         vertex 3.000000e+01 6.000000e+00 3.000000e+01
      endloop
   endfacet
   facet normal 0.000000e+00 1.000000e+00 0.000000e+00
      outer loop
         vertex 3.000000e+01 6.000000e+00 3.000000e+01
         vertex 3.361803e+01 6.000000e+00 3.317557e+01
         vertex 3.378201e+01 6.000000e+00 3.290798e+01
      endloop
   endfacet
   facet normal 0.000000e+00 1.000000e+00 0.000000e+00
      outer loop
         vertex 3.000000e+01 6.000000e+00 3.000000e+01
         vertex 3.378201e+01 6.000000e+00 3.290798e+01
         vertex 3.390211e+01 6.000000e+00 3.261803e+01
      endloop
   endfacet
   facet normal -0.000000e+00 1.000000e+00 0.000000e+00
      outer loop
         vertex 2.462417e-02 6.000000e+00 3.231287e+01
         vertex 9.788759e-02 6.000000e+00 3.261803e+01
         vertex 4.000001e+00 6.000000e+00 3.000000e+01
      endloop
   endfacet
   facet normal 0.000000e+00 1.000000e+00 0.000000e+00
      outer loop
         vertex 3.397538e+01 6.000000e+00 1.687132e+00
         vertex 3.390211e+01 6.000000e+00 1.381967e+00
         vertex 3.000000e+01 6.000000e+00 4.000001e+00
      endloop
   endfacet
   facet normal -0.000000e+00 1.000000e+00 0.000000e+00
      outer loop
         vertex 1.092020e+00 6.000000e+00 3.378201e+01
         vertex 1.381967e+00 6.000000e+00 3.390211e+01
         vertex 4.000001e+00 6.000000e+00 3.000000e+01
      endloop
   endfacet
   facet normal 0.000000e+00 1.000000e+00 0.000000e+00
      outer loop
         vertex 4.000001e+00 6.000000e+00 3.000000e+01
         vertex 1.381967e+00 6.000000e+00 3.390211e+01
         vertex 1.687132e+00 6.000000e+00 3.397538e+01
      endloop
   endfacet
   facet normal 0.000000e+00 1.000000e+00 -0.000000e+00
      outer loop
         vertex 4.000001e+00 6.000000e+00 3.000000e+01
         vertex 1.687132e+00 6.000000e+00 3.397538e+01
         vertex 1.600000e+01 6.000000e+00 3.000000e+01
      endloop
   endfacet
   facet normal 0.000000e+00 1.000000e+00 0.000000e+00
      outer loop
         vertex 1.600000e+01 6.000000e+00 3.000000e+01
         vertex 1.687132e+00 6.000000e+00 3.397538e+01
         vertex 2.000001e+00 6.000000e+00 3.400000e+01
      endloop
   endfacet
   facet normal 0.000000e+00 1.000000e+00 -0.000000e+00
      outer loop
         vertex 1.600000e+01 6.000000e+00 3.000000e+01
         vertex 2.000001e+00 6.000000e+00 3.400000e+01
         vertex 1.800000e+01 6.000000e+00 3.000000e+01
      endloop
   endfacet
   facet normal 0.000000e+00 1.000000e+00 -0.000000e+00
      outer loop
         vertex 1.800000e+01 6.000000e+00 3.000000e+01
         vertex 2.000001e+00 6.000000e+00 3.400000e+01
         vertex 3.200000e+01 6.000000e+00 3.400000e+01
      endloop
   endfacet
   facet normal 0.000000e+00 1.000000e+00 0.000000e+00
      outer loop
         vertex 1.800000e+01 6.000000e+00 3.000000e+01
         vertex 3.200000e+01 6.000000e+00 3.400000e+01
         vertex 3.000000e+01 6.000000e+00 3.000000e+01
      endloop
   endfacet
   facet normal 0.000000e+00 1.000000e+00 0.000000e+00
      outer loop
         vertex 3.000000e+01 6.000000e+00 3.000000e+01
         vertex 3.200000e+01 6.000000e+00 3.400000e+01
         vertex 3.231287e+01 6.000000e+00 3.397538e+01
      endloop
   endfacet
   facet normal 0.000000e+00 1.000000e+00 0.000000e+00
      outer loop
         vertex 3.000000e+01 6.000000e+00 3.000000e+01
         vertex 3.231287e+01 6.000000e+00 3.397538e+01
         vertex 3.261803e+01 6.000000e+00 3.390211e+01
      endloop
   endfacet
   facet normal 0.000000e+00 1.000000e+00 0.000000e+00
      outer loop
         vertex 3.261803e+01 6.000000e+00 3.390211e+01
         vertex 3.290798e+01 6.000000e+00 3.378201e+01
         vertex 3.000000e+01 6.000000e+00 3.000000e+01
      endloop
   endfacet
   facet normal 0.000000e+00 1.000000e+00 0.000000e+00
      outer loop
         vertex 3.000000e+01 6.000000e+00 3.000000e+01
         vertex 3.290798e+01 6.000000e+00 3.378201e+01
         vertex 3.317557e+01 6.000000e+00 3.361803e+01
      endloop
   endfacet
   facet normal 0.000000e+00 1.000000e+00 0.000000e+00
      outer loop
         vertex 3.000000e+01 6.000000e+00 3.000000e+01
         vertex 3.317557e+01 6.000000e+00 3.361803e+01
         vertex 3.341421e+01 6.000000e+00 3.341421e+01
      endloop
   endfacet
   facet normal 0.000000e+00 1.000000e+00 -0.000000e+00
      outer loop
         vertex 9.788759e-02 6.000000e+00 1.381967e+00
         vertex 2.462417e-02 6.000000e+00 1.687132e+00
         vertex 4.000001e+00 6.000000e+00 4.000001e+00
      endloop
   endfacet
   facet normal 0.000000e+00 1.000000e+00 0.000000e+00
      outer loop
         vertex 4.000001e+00 6.000000e+00 4.000001e+00
         vertex 2.462417e-02 6.000000e+00 1.687132e+00
         vertex 0.000000e+00 6.000000e+00 2.000001e+00
      endloop
   endfacet
   facet normal 0.000000e+00 1.000000e+00 -0.000000e+00
      outer loop
         vertex 4.000001e+00 6.000000e+00 4.000001e+00
         vertex 0.000000e+00 6.000000e+00 2.000001e+00
         vertex 4.000001e+00 6.000000e+00 3.000000e+01
      endloop
   endfacet
   facet normal 0.000000e+00 1.000000e+00 0.000000e+00
      outer loop
         vertex 4.000001e+00 6.000000e+00 3.000000e+01
         vertex 0.000000e+00 6.000000e+00 2.000001e+00
         vertex 0.000000e+00 6.000000e+00 3.200000e+01
      endloop
   endfacet
   facet normal 0.000000e+00 1.000000e+00 0.000000e+00
      outer loop
         vertex 4.000001e+00 6.000000e+00 3.000000e+01
         vertex 0.000000e+00 6.000000e+00 3.200000e+01
         vertex 2.462417e-02 6.000000e+00 3.231287e+01
      endloop
   endfacet
   facet normal -0.000000e+00 1.000000e+00 0.000000e+00
      outer loop
         vertex 9.788759e-02 6.000000e+00 3.261803e+01
         vertex 2.179872e-01 6.000000e+00 3.290798e+01
         vertex 4.000001e+00 6.000000e+00 3.000000e+01
      endloop
   endfacet
   facet normal 0.000000e+00 1.000000e+00 0.000000e+00
      outer loop
         vertex 4.000001e+00 6.000000e+00 3.000000e+01
         vertex 2.179872e-01 6.000000e+00 3.290798e+01
         vertex 3.819671e-01 6.000000e+00 3.317557e+01
      endloop
   endfacet
   facet normal 0.000000e+00 1.000000e+00 0.000000e+00
      outer loop
         vertex 4.000001e+00 6.000000e+00 3.000000e+01
         vertex 3.819671e-01 6.000000e+00 3.317557e+01
         vertex 5.857870e-01 6.000000e+00 3.341421e+01
      endloop
   endfacet
   facet normal 0.000000e+00 1.000000e+00 -0.000000e+00
      outer loop
         vertex 1.381967e+00 6.000000e+00 9.788759e-02
         vertex 1.092020e+00 6.000000e+00 2.179872e-01
         vertex 4.000001e+00 6.000000e+00 4.000001e+00
      endloop
   endfacet
   facet normal 0.000000e+00 1.000000e+00 0.000000e+00
      outer loop
         vertex 4.000001e+00 6.000000e+00 4.000001e+00
         vertex 1.092020e+00 6.000000e+00 2.179872e-01
         vertex 8.244310e-01 6.000000e+00 3.819671e-01
      endloop
   endfacet
   facet normal 0.000000e+00 1.000000e+00 0.000000e+00
      outer loop
         vertex 4.000001e+00 6.000000e+00 4.000001e+00
         vertex 8.244310e-01 6.000000e+00 3.819671e-01
         vertex 5.857870e-01 6.000000e+00 5.857870e-01
      endloop
   endfacet
   facet normal 0.000000e+00 1.000000e+00 0.000000e+00
      outer loop
         vertex 3.390211e+01 6.000000e+00 3.261803e+01
         vertex 3.397538e+01 6.000000e+00 3.231287e+01
         vertex 3.000000e+01 6.000000e+00 3.000000e+01
      endloop
   endfacet
   facet normal 0.000000e+00 1.000000e+00 0.000000e+00
      outer loop
         vertex 3.000000e+01 6.000000e+00 3.000000e+01
         vertex 3.397538e+01 6.000000e+00 3.231287e+01
         vertex 3.400000e+01 6.000000e+00 3.200000e+01
      endloop
   endfacet
   facet normal -0.000000e+00 1.000000e+00 0.000000e+00
      outer loop
         vertex 3.000000e+01 6.000000e+00 3.000000e+01
         vertex 3.400000e+01 6.000000e+00 3.200000e+01
         vertex 3.000000e+01 6.000000e+00 4.000001e+00
      endloop
   endfacet
   facet normal -0.000000e+00 1.000000e+00 0.000000e+00
      outer loop
         vertex 3.000000e+01 6.000000e+00 4.000001e+00
         vertex 3.400000e+01 6.000000e+00 3.200000e+01
         vertex 3.400000e+01 6.000000e+00 2.000001e+00
      endloop
   endfacet
   facet normal 0.000000e+00 1.000000e+00 0.000000e+00
      outer loop
         vertex 3.000000e+01 6.000000e+00 4.000001e+00
         vertex 3.400000e+01 6.000000e+00 2.000001e+00
         vertex 3.397538e+01 6.000000e+00 1.687132e+00
      endloop
   endfacet
   facet normal 0.000000e+00 1.000000e+00 0.000000e+00
      outer loop
         vertex 3.390211e+01 6.000000e+00 1.381967e+00
         vertex 3.378201e+01 6.000000e+00 1.092020e+00
         vertex 3.000000e+01 6.000000e+00 4.000001e+00
      endloop
   endfacet
   facet normal 0.000000e+00 1.000000e+00 0.000000e+00
      outer loop
         vertex 3.000000e+01 6.000000e+00 4.000001e+00
         vertex 3.378201e+01 6.000000e+00 1.092020e+00
         vertex 3.361803e+01 6.000000e+00 8.244310e-01
      endloop
   endfacet
   facet normal 0.000000e+00 1.000000e+00 0.000000e+00
      outer loop
         vertex 3.000000e+01 6.000000e+00 4.000001e+00
         vertex 3.361803e+01 6.000000e+00 8.244310e-01
         vertex 3.341421e+01 6.000000e+00 5.857870e-01
      endloop
   endfacet
   facet normal 0.000000e+00 1.000000e+00 0.000000e+00
      outer loop
         vertex 1.800000e+01 6.000000e+00 3.000000e+01
         vertex 1.800000e+01 6.000000e+00 4.000001e+00
         vertex 1.600000e+01 6.000000e+00 4.000001e+00
      endloop
   endfacet
   facet normal -0.000000e+00 1.000000e+00 0.000000e+00
      outer loop
         vertex 1.600000e+01 6.000000e+00 4.000001e+00
         vertex 1.800000e+01 6.000000e+00 4.000001e+00
         vertex 2.000001e+00 6.000000e+00 0.000000e+00
      endloop
   endfacet
   facet normal 0.000000e+00 1.000000e+00 0.000000e+00
      outer loop
         vertex 1.600000e+01 6.000000e+00 4.000001e+00
         vertex 2.000001e+00 6.000000e+00 0.000000e+00
         vertex 4.000001e+00 6.000000e+00 4.000001e+00
      endloop
   endfacet
   facet normal 0.000000e+00 1.000000e+00 0.000000e+00
      outer loop
         vertex 4.000001e+00 6.000000e+00 4.000001e+00
         vertex 2.000001e+00 6.000000e+00 0.000000e+00
         vertex 1.687132e+00 6.000000e+00 2.462417e-02
      endloop
   endfacet
   facet normal 0.000000e+00 1.000000e+00 0.000000e+00
      outer loop
         vertex 4.000001e+00 6.000000e+00 4.000001e+00
         vertex 1.687132e+00 6.000000e+00 2.462417e-02
         vertex 1.381967e+00 6.000000e+00 9.788759e-02
      endloop
   endfacet
   facet normal 0.000000e+00 -1.000000e+00 -0.000000e+00
      outer loop
         vertex 1.381967e+00 0.000000e+00 3.390211e+01
         vertex 1.092020e+00 0.000000e+00 3.378201e+01
         vertex 4.000001e+00 0.000000e+00 3.000000e+01
      endloop
   endfacet
   facet normal 0.000000e+00 -1.000000e+00 0.000000e+00
      outer loop
         vertex 9.788759e-02 0.000000e+00 3.261803e+01
         vertex 4.000001e+00 0.000000e+00 3.000000e+01
         vertex 2.179872e-01 0.000000e+00 3.290798e+01
      endloop
   endfacet
   facet normal 0.000000e+00 -1.000000e+00 0.000000e+00
      outer loop
         vertex 2.179872e-01 0.000000e+00 3.290798e+01
         vertex 4.000001e+00 0.000000e+00 3.000000e+01
         vertex 3.819671e-01 0.000000e+00 3.317557e+01
      endloop
   endfacet
   facet normal 0.000000e+00 -1.000000e+00 0.000000e+00
      outer loop
         vertex 2.462417e-02 0.000000e+00 1.687132e+00
         vertex 9.788759e-02 0.000000e+00 1.381967e+00
         vertex 4.000001e+00 0.000000e+00 4.000001e+00
      endloop
   endfacet
   facet normal 0.000000e+00 -1.000000e+00 0.000000e+00
      outer loop
         vertex 4.000001e+00 0.000000e+00 4.000001e+00
         vertex 9.788759e-02 0.000000e+00 1.381967e+00
         vertex 2.179872e-01 0.000000e+00 1.092020e+00
      endloop
   endfacet
   facet normal 0.000000e+00 -1.000000e+00 0.000000e+00
      outer loop
         vertex 4.000001e+00 0.000000e+00 4.000001e+00
         vertex 2.179872e-01 0.000000e+00 1.092020e+00
         vertex 3.819671e-01 0.000000e+00 8.244310e-01
      endloop
   endfacet
   facet normal 0.000000e+00 -1.000000e+00 -0.000000e+00
      outer loop
         vertex 1.092020e+00 0.000000e+00 3.378201e+01
         vertex 8.244310e-01 0.000000e+00 3.361803e+01
         vertex 4.000001e+00 0.000000e+00 3.000000e+01
      endloop
   endfacet
   facet normal 0.000000e+00 -1.000000e+00 0.000000e+00
      outer loop
         vertex 4.000001e+00 0.000000e+00 3.000000e+01
         vertex 8.244310e-01 0.000000e+00 3.361803e+01
         vertex 5.857870e-01 0.000000e+00 3.341421e+01
      endloop
   endfacet
   facet normal 0.000000e+00 -1.000000e+00 0.000000e+00
      outer loop
         vertex 4.000001e+00 0.000000e+00 3.000000e+01
         vertex 5.857870e-01 0.000000e+00 3.341421e+01
         vertex 3.819671e-01 0.000000e+00 3.317557e+01
      endloop
   endfacet
   facet normal 0.000000e+00 -1.000000e+00 0.000000e+00
      outer loop
         vertex 1.400000e+01 0.000000e+00 4.000001e+00
         vertex 2.000000e+01 0.000000e+00 4.000001e+00
         vertex 1.400000e+01 0.000000e+00 3.000000e+01
      endloop
   endfacet
   facet normal 0.000000e+00 -1.000000e+00 0.000000e+00
      outer loop
         vertex 1.400000e+01 0.000000e+00 3.000000e+01
         vertex 2.000000e+01 0.000000e+00 4.000001e+00
         vertex 2.000000e+01 0.000000e+00 3.000000e+01
      endloop
   endfacet
   facet normal 0.000000e+00 -1.000000e+00 -0.000000e+00
      outer loop
         vertex 9.788759e-02 0.000000e+00 3.261803e+01
         vertex 2.462417e-02 0.000000e+00 3.231287e+01
         vertex 4.000001e+00 0.000000e+00 3.000000e+01
      endloop
   endfacet
   facet normal 0.000000e+00 -1.000000e+00 0.000000e+00
      outer loop
         vertex 4.000001e+00 0.000000e+00 3.000000e+01
         vertex 2.462417e-02 0.000000e+00 3.231287e+01
         vertex 0.000000e+00 0.000000e+00 3.200000e+01
      endloop
   endfacet
   facet normal -0.000000e+00 -1.000000e+00 -0.000000e+00
      outer loop
         vertex 4.000001e+00 0.000000e+00 3.000000e+01
         vertex 0.000000e+00 0.000000e+00 3.200000e+01
         vertex 4.000001e+00 0.000000e+00 4.000001e+00
      endloop
   endfacet
   facet normal -0.000000e+00 -1.000000e+00 0.000000e+00
      outer loop
         vertex 4.000001e+00 0.000000e+00 4.000001e+00
         vertex 0.000000e+00 0.000000e+00 3.200000e+01
         vertex 0.000000e+00 0.000000e+00 2.000001e+00
      endloop
   endfacet
   facet normal 0.000000e+00 -1.000000e+00 0.000000e+00
      outer loop
         vertex 4.000001e+00 0.000000e+00 4.000001e+00
         vertex 0.000000e+00 0.000000e+00 2.000001e+00
         vertex 2.462417e-02 0.000000e+00 1.687132e+00
      endloop
   endfacet
   facet normal 0.000000e+00 -1.000000e+00 0.000000e+00
      outer loop
         vertex 3.819671e-01 0.000000e+00 8.244310e-01
         vertex 5.857870e-01 0.000000e+00 5.857870e-01
         vertex 4.000001e+00 0.000000e+00 4.000001e+00
      endloop
   endfacet
   facet normal 0.000000e+00 -1.000000e+00 0.000000e+00
      outer loop
         vertex 4.000001e+00 0.000000e+00 4.000001e+00
         vertex 5.857870e-01 0.000000e+00 5.857870e-01
         vertex 8.244310e-01 0.000000e+00 3.819671e-01
      endloop
   endfacet
   facet normal 0.000000e+00 -1.000000e+00 0.000000e+00
      outer loop
         vertex 4.000001e+00 0.000000e+00 4.000001e+00
         vertex 8.244310e-01 0.000000e+00 3.819671e-01
         vertex 1.092020e+00 0.000000e+00 2.179872e-01
      endloop
   endfacet
   facet normal 0.000000e+00 -1.000000e+00 0.000000e+00
      outer loop
         vertex 3.000000e+01 0.000000e+00 3.000000e+01
         vertex 3.317557e+01 0.000000e+00 3.361803e+01
         vertex 3.290798e+01 0.000000e+00 3.378201e+01
      endloop
   endfacet
   facet normal -0.000000e+00 -1.000000e+00 0.000000e+00
      outer loop
         vertex 3.390211e+01 0.000000e+00 3.261803e+01
         vertex 3.378201e+01 0.000000e+00 3.290798e+01
         vertex 3.000000e+01 0.000000e+00 3.000000e+01
      endloop
   endfacet
   facet normal 0.000000e+00 -1.000000e+00 0.000000e+00
      outer loop
         vertex 3.261803e+01 0.000000e+00 9.788759e-02
         vertex 3.290798e+01 0.000000e+00 2.179872e-01
         vertex 3.000000e+01 0.000000e+00 4.000001e+00
      endloop
   endfacet
   facet normal 0.000000e+00 -1.000000e+00 0.000000e+00
      outer loop
         vertex 3.000000e+01 0.000000e+00 4.000001e+00
         vertex 3.290798e+01 0.000000e+00 2.179872e-01
         vertex 3.317557e+01 0.000000e+00 3.819671e-01
      endloop
   endfacet
   facet normal 0.000000e+00 -1.000000e+00 0.000000e+00
      outer loop
         vertex 3.000000e+01 0.000000e+00 4.000001e+00
         vertex 3.317557e+01 0.000000e+00 3.819671e-01
         vertex 3.341421e+01 0.000000e+00 5.857870e-01
      endloop
   endfacet
   facet normal -0.000000e+00 -1.000000e+00 0.000000e+00
      outer loop
         vertex 3.290798e+01 0.000000e+00 3.378201e+01
         vertex 3.261803e+01 0.000000e+00 3.390211e+01
         vertex 3.000000e+01 0.000000e+00 3.000000e+01
      endloop
   endfacet
   facet normal 0.000000e+00 -1.000000e+00 0.000000e+00
      outer loop
         vertex 3.000000e+01 0.000000e+00 3.000000e+01
         vertex 3.261803e+01 0.000000e+00 3.390211e+01
         vertex 3.231287e+01 0.000000e+00 3.397538e+01
      endloop
   endfacet
   facet normal 0.000000e+00 -1.000000e+00 0.000000e+00
      outer loop
         vertex 3.000000e+01 0.000000e+00 3.000000e+01
         vertex 3.231287e+01 0.000000e+00 3.397538e+01
         vertex 2.000000e+01 0.000000e+00 3.000000e+01
      endloop
   endfacet
   facet normal 0.000000e+00 -1.000000e+00 0.000000e+00
      outer loop
         vertex 2.000000e+01 0.000000e+00 3.000000e+01
         vertex 3.231287e+01 0.000000e+00 3.397538e+01
         vertex 3.200000e+01 0.000000e+00 3.400000e+01
      endloop
   endfacet
   facet normal 0.000000e+00 -1.000000e+00 0.000000e+00
      outer loop
         vertex 2.000000e+01 0.000000e+00 3.000000e+01
         vertex 3.200000e+01 0.000000e+00 3.400000e+01
         vertex 1.400000e+01 0.000000e+00 3.000000e+01
      endloop
   endfacet
   facet normal 0.000000e+00 -1.000000e+00 0.000000e+00
      outer loop
         vertex 1.400000e+01 0.000000e+00 3.000000e+01
         vertex 3.200000e+01 0.000000e+00 3.400000e+01
         vertex 2.000001e+00 0.000000e+00 3.400000e+01
      endloop
   endfacet
   facet normal 0.000000e+00 -1.000000e+00 0.000000e+00
      outer loop
         vertex 1.400000e+01 0.000000e+00 3.000000e+01
         vertex 2.000001e+00 0.000000e+00 3.400000e+01
         vertex 4.000001e+00 0.000000e+00 3.000000e+01
      endloop
   endfacet
   facet normal 0.000000e+00 -1.000000e+00 0.000000e+00
      outer loop
         vertex 4.000001e+00 0.000000e+00 3.000000e+01
         vertex 2.000001e+00 0.000000e+00 3.400000e+01
         vertex 1.687132e+00 0.000000e+00 3.397538e+01
      endloop
   endfacet
   facet normal 0.000000e+00 -1.000000e+00 0.000000e+00
      outer loop
         vertex 4.000001e+00 0.000000e+00 3.000000e+01
         vertex 1.687132e+00 0.000000e+00 3.397538e+01
         vertex 1.381967e+00 0.000000e+00 3.390211e+01
      endloop
   endfacet
   facet normal 0.000000e+00 -1.000000e+00 0.000000e+00
      outer loop
         vertex 3.341421e+01 0.000000e+00 5.857870e-01
         vertex 3.361803e+01 0.000000e+00 8.244310e-01
         vertex 3.000000e+01 0.000000e+00 4.000001e+00
      endloop
   endfacet
   facet normal 0.000000e+00 -1.000000e+00 0.000000e+00
      outer loop
         vertex 3.000000e+01 0.000000e+00 4.000001e+00
         vertex 3.361803e+01 0.000000e+00 8.244310e-01
         vertex 3.378201e+01 0.000000e+00 1.092020e+00
      endloop
   endfacet
   facet normal 0.000000e+00 -1.000000e+00 0.000000e+00
      outer loop
         vertex 3.000000e+01 0.000000e+00 4.000001e+00
         vertex 3.378201e+01 0.000000e+00 1.092020e+00
         vertex 3.390211e+01 0.000000e+00 1.381967e+00
      endloop
   endfacet
   facet normal 0.000000e+00 -1.000000e+00 -0.000000e+00
      outer loop
         vertex 3.390211e+01 0.000000e+00 3.261803e+01
         vertex 3.000000e+01 0.000000e+00 3.000000e+01
         vertex 3.397538e+01 0.000000e+00 3.231287e+01
      endloop
   endfacet
   facet normal -0.000000e+00 -1.000000e+00 0.000000e+00
      outer loop
         vertex 3.378201e+01 0.000000e+00 3.290798e+01
         vertex 3.361803e+01 0.000000e+00 3.317557e+01
         vertex 3.000000e+01 0.000000e+00 3.000000e+01
      endloop
   endfacet
   facet normal 0.000000e+00 -1.000000e+00 0.000000e+00
      outer loop
         vertex 3.000000e+01 0.000000e+00 3.000000e+01
         vertex 3.361803e+01 0.000000e+00 3.317557e+01
         vertex 3.341421e+01 0.000000e+00 3.341421e+01
      endloop
   endfacet
   facet normal 0.000000e+00 -1.000000e+00 0.000000e+00
      outer loop
         vertex 3.000000e+01 0.000000e+00 3.000000e+01
         vertex 3.341421e+01 0.000000e+00 3.341421e+01
         vertex 3.317557e+01 0.000000e+00 3.361803e+01
      endloop
   endfacet
   facet normal 0.000000e+00 -1.000000e+00 0.000000e+00
      outer loop
         vertex 1.092020e+00 0.000000e+00 2.179872e-01
         vertex 1.381967e+00 0.000000e+00 9.788759e-02
         vertex 4.000001e+00 0.000000e+00 4.000001e+00
      endloop
   endfacet
   facet normal 0.000000e+00 -1.000000e+00 0.000000e+00
      outer loop
         vertex 4.000001e+00 0.000000e+00 4.000001e+00
         vertex 1.381967e+00 0.000000e+00 9.788759e-02
         vertex 1.687132e+00 0.000000e+00 2.462417e-02
      endloop
   endfacet
   facet normal 0.000000e+00 -1.000000e+00 -0.000000e+00
      outer loop
         vertex 4.000001e+00 0.000000e+00 4.000001e+00
         vertex 1.687132e+00 0.000000e+00 2.462417e-02
         vertex 1.400000e+01 0.000000e+00 4.000001e+00
      endloop
   endfacet
   facet normal 0.000000e+00 -1.000000e+00 0.000000e+00
      outer loop
         vertex 1.400000e+01 0.000000e+00 4.000001e+00
         vertex 1.687132e+00 0.000000e+00 2.462417e-02
         vertex 2.000001e+00 0.000000e+00 0.000000e+00
      endloop
   endfacet
   facet normal 0.000000e+00 -1.000000e+00 -0.000000e+00
      outer loop
         vertex 1.400000e+01 0.000000e+00 4.000001e+00
         vertex 2.000001e+00 0.000000e+00 0.000000e+00
         vertex 2.000000e+01 0.000000e+00 4.000001e+00
      endloop
   endfacet
   facet normal 0.000000e+00 -1.000000e+00 -0.000000e+00
      outer loop
         vertex 2.000000e+01 0.000000e+00 4.000001e+00
         vertex 2.000001e+00 0.000000e+00 0.000000e+00
         vertex 3.200000e+01 0.000000e+00 0.000000e+00
      endloop
   endfacet
   facet normal 0.000000e+00 -1.000000e+00 0.000000e+00
      outer loop
         vertex 2.000000e+01 0.000000e+00 4.000001e+00
         vertex 3.200000e+01 0.000000e+00 0.000000e+00
         vertex 3.000000e+01 0.000000e+00 4.000001e+00
      endloop
   endfacet
   facet normal 0.000000e+00 -1.000000e+00 0.000000e+00
      outer loop
         vertex 3.000000e+01 0.000000e+00 4.000001e+00
         vertex 3.200000e+01 0.000000e+00 0.000000e+00
         vertex 3.231287e+01 0.000000e+00 2.462417e-02
      endloop
   endfacet
   facet normal 0.000000e+00 -1.000000e+00 0.000000e+00
      outer loop
         vertex 3.000000e+01 0.000000e+00 4.000001e+00
         vertex 3.231287e+01 0.000000e+00 2.462417e-02
         vertex 3.261803e+01 0.000000e+00 9.788759e-02
      endloop
   endfacet
   facet normal 0.000000e+00 -1.000000e+00 0.000000e+00
      outer loop
         vertex 3.390211e+01 0.000000e+00 1.381967e+00
         vertex 3.397538e+01 0.000000e+00 1.687132e+00
         vertex 3.000000e+01 0.000000e+00 4.000001e+00
      endloop
   endfacet
   facet normal 0.000000e+00 -1.000000e+00 0.000000e+00
      outer loop
         vertex 3.000000e+01 0.000000e+00 4.000001e+00
         vertex 3.397538e+01 0.000000e+00 1.687132e+00
         vertex 3.400000e+01 0.000000e+00 2.000001e+00
      endloop
   endfacet
   facet normal 0.000000e+00 -1.000000e+00 0.000000e+00
      outer loop
         vertex 3.000000e+01 0.000000e+00 4.000001e+00
         vertex 3.400000e+01 0.000000e+00 2.000001e+00
         vertex 3.000000e+01 0.000000e+00 3.000000e+01
      endloop
   endfacet
   facet normal 0.000000e+00 -1.000000e+00 0.000000e+00
      outer loop
         vertex 3.000000e+01 0.000000e+00 3.000000e+01
         vertex 3.400000e+01 0.000000e+00 2.000001e+00
         vertex 3.400000e+01 0.000000e+00 3.200000e+01
      endloop
   endfacet
   facet normal 0.000000e+00 -1.000000e+00 0.000000e+00
      outer loop
         vertex 3.000000e+01 0.000000e+00 3.000000e+01
         vertex 3.400000e+01 0.000000e+00 3.200000e+01
         vertex 3.397538e+01 0.000000e+00 3.231287e+01
      endloop
   endfacet
   facet normal -1.000000e+00 -0.000000e+00 -0.000000e+00
      outer loop
         vertex 0.000000e+00 6.000000e+00 3.200000e+01
         vertex 0.000000e+00 6.000000e+00 2.000001e+00
         vertex 0.000000e+00 0.000000e+00 3.200000e+01
      endloop
   endfacet
   facet normal -1.000000e+00 0.000000e+00 0.000000e+00
      outer loop
         vertex 0.000000e+00 0.000000e+00 3.200000e+01
         vertex 0.000000e+00 6.000000e+00 2.000001e+00
         vertex 0.000000e+00 0.000000e+00 2.000001e+00
      endloop
   endfacet
   facet normal 0.000000e+00 0.000000e+00 1.000000e+00
      outer loop
         vertex 2.000001e+00 0.000000e+00 3.400000e+01
         vertex 3.200000e+01 0.000000e+00 3.400000e+01
         vertex 2.000001e+00 6.000000e+00 3.400000e+01
      endloop
   endfacet
   facet normal -0.000000e+00 0.000000e+00 1.000000e+00
      outer loop
         vertex 2.000001e+00 6.000000e+00 3.400000e+01
         vertex 3.200000e+01 0.000000e+00 3.400000e+01
         vertex 3.200000e+01 6.000000e+00 3.400000e+01
      endloop
   endfacet
   facet normal 1.000000e+00 -0.000000e+00 0.000000e+00
      outer loop
         vertex 3.400000e+01 0.000000e+00 3.200000e+01
         vertex 3.400000e+01 0.000000e+00 2.000001e+00
         vertex 3.400000e+01 6.000000e+00 3.200000e+01
      endloop
   endfacet
   facet normal 1.000000e+00 0.000000e+00 0.000000e+00
      outer loop
         vertex 3.400000e+01 6.000000e+00 3.200000e+01
         vertex 3.400000e+01 0.000000e+00 2.000001e+00
         vertex 3.400000e+01 6.000000e+00 2.000001e+00
      endloop
   endfacet
   facet normal 0.000000e+00 0.000000e+00 -1.000000e+00
      outer loop
         vertex 3.200000e+01 0.000000e+00 0.000000e+00
         vertex 2.000001e+00 0.000000e+00 0.000000e+00
         vertex 3.200000e+01 6.000000e+00 0.000000e+00
      endloop
   endfacet
   facet normal -0.000000e+00 0.000000e+00 -1.000000e+00
      outer loop
         vertex 3.200000e+01 6.000000e+00 0.000000e+00
         vertex 2.000001e+00 0.000000e+00 0.000000e+00
         vertex 2.000001e+00 6.000000e+00 0.000000e+00
      endloop
   endfacet
   facet normal 0.000000e+00 -0.000000e+00 1.000000e+00
      outer loop
         vertex 1.565270e+01 5.969616e+00 4.000001e+00
         vertex 1.600000e+01 6.000000e+00 4.000001e+00
         vertex 4.000001e+00 6.000000e+00 4.000001e+00
      endloop
   endfacet
   facet normal 0.000000e+00 -0.000000e+00 1.000000e+00
      outer loop
         vertex 1.403039e+01 4.347296e+00 4.000001e+00
         vertex 1.412062e+01 4.684040e+00 4.000001e+00
         vertex 4.000001e+00 6.000000e+00 4.000001e+00
      endloop
   endfacet
   facet normal 0.000000e+00 -0.000000e+00 1.000000e+00
      outer loop
         vertex 1.412062e+01 4.684040e+00 4.000001e+00
         vertex 1.426795e+01 5.000000e+00 4.000001e+00
         vertex 4.000001e+00 6.000000e+00 4.000001e+00
      endloop
   endfacet
   facet normal 0.000000e+00 0.000000e+00 1.000000e+00
      outer loop
         vertex 4.000001e+00 6.000000e+00 4.000001e+00
         vertex 1.426795e+01 5.000000e+00 4.000001e+00
         vertex 1.446791e+01 5.285575e+00 4.000001e+00
      endloop
   endfacet
   facet normal 0.000000e+00 0.000000e+00 1.000000e+00
      outer loop
         vertex 4.000001e+00 6.000000e+00 4.000001e+00
         vertex 1.446791e+01 5.285575e+00 4.000001e+00
         vertex 1.471443e+01 5.532089e+00 4.000001e+00
      endloop
   endfacet
   facet normal 0.000000e+00 -0.000000e+00 1.000000e+00
      outer loop
         vertex 1.471443e+01 5.532089e+00 4.000001e+00
         vertex 1.500000e+01 5.732051e+00 4.000001e+00
         vertex 4.000001e+00 6.000000e+00 4.000001e+00
      endloop
   endfacet
   facet normal 0.000000e+00 0.000000e+00 1.000000e+00
      outer loop
         vertex 4.000001e+00 6.000000e+00 4.000001e+00
         vertex 1.500000e+01 5.732051e+00 4.000001e+00
         vertex 1.531596e+01 5.879385e+00 4.000001e+00
      endloop
   endfacet
   facet normal 0.000000e+00 0.000000e+00 1.000000e+00
      outer loop
         vertex 4.000001e+00 6.000000e+00 4.000001e+00
         vertex 1.531596e+01 5.879385e+00 4.000001e+00
         vertex 1.565270e+01 5.969616e+00 4.000001e+00
      endloop
   endfacet
   facet normal 0.000000e+00 0.000000e+00 1.000000e+00
      outer loop
         vertex 4.000001e+00 0.000000e+00 4.000001e+00
         vertex 1.400000e+01 0.000000e+00 4.000001e+00
         vertex 4.000001e+00 6.000000e+00 4.000001e+00
      endloop
   endfacet
   facet normal 0.000000e+00 0.000000e+00 1.000000e+00
      outer loop
         vertex 4.000001e+00 6.000000e+00 4.000001e+00
         vertex 1.400000e+01 0.000000e+00 4.000001e+00
         vertex 1.400000e+01 4.000000e+00 4.000001e+00
      endloop
   endfacet
   facet normal 0.000000e+00 0.000000e+00 1.000000e+00
      outer loop
         vertex 4.000001e+00 6.000000e+00 4.000001e+00
         vertex 1.400000e+01 4.000000e+00 4.000001e+00
         vertex 1.403039e+01 4.347296e+00 4.000001e+00
      endloop
   endfacet
   facet normal 1.000000e+00 0.000000e+00 -0.000000e+00
      outer loop
         vertex 4.000001e+00 6.000000e+00 4.000001e+00
         vertex 4.000001e+00 6.000000e+00 3.000000e+01
         vertex 4.000001e+00 0.000000e+00 4.000001e+00
      endloop
   endfacet
   facet normal 1.000000e+00 0.000000e+00 0.000000e+00
      outer loop
         vertex 4.000001e+00 0.000000e+00 4.000001e+00
         vertex 4.000001e+00 6.000000e+00 3.000000e+01
         vertex 4.000001e+00 0.000000e+00 3.000000e+01
      endloop
   endfacet
   facet normal 0.000000e+00 0.000000e+00 -1.000000e+00
      outer loop
         vertex 1.531596e+01 5.879385e+00 3.000000e+01
         vertex 4.000001e+00 6.000000e+00 3.000000e+01
         vertex 1.565270e+01 5.969616e+00 3.000000e+01
      endloop
   endfacet
   facet normal 0.000000e+00 0.000000e+00 -1.000000e+00
      outer loop
         vertex 1.565270e+01 5.969616e+00 3.000000e+01
         vertex 4.000001e+00 6.000000e+00 3.000000e+01
         vertex 1.600000e+01 6.000000e+00 3.000000e+01
      endloop
   endfacet
   facet normal 0.000000e+00 0.000000e+00 -1.000000e+00
      outer loop
         vertex 1.412062e+01 4.684040e+00 3.000000e+01
         vertex 4.000001e+00 6.000000e+00 3.000000e+01
         vertex 1.426795e+01 5.000000e+00 3.000000e+01
      endloop
   endfacet
   facet normal 0.000000e+00 0.000000e+00 -1.000000e+00
      outer loop
         vertex 1.426795e+01 5.000000e+00 3.000000e+01
         vertex 4.000001e+00 6.000000e+00 3.000000e+01
         vertex 1.446791e+01 5.285575e+00 3.000000e+01
      endloop
   endfacet
   facet normal -0.000000e+00 0.000000e+00 -1.000000e+00
      outer loop
         vertex 1.531596e+01 5.879385e+00 3.000000e+01
         vertex 1.500000e+01 5.732051e+00 3.000000e+01
         vertex 4.000001e+00 6.000000e+00 3.000000e+01
      endloop
   endfacet
   facet normal 0.000000e+00 0.000000e+00 -1.000000e+00
      outer loop
         vertex 4.000001e+00 6.000000e+00 3.000000e+01
         vertex 1.500000e+01 5.732051e+00 3.000000e+01
         vertex 1.471443e+01 5.532089e+00 3.000000e+01
      endloop
   endfacet
   facet normal 0.000000e+00 0.000000e+00 -1.000000e+00
      outer loop
         vertex 4.000001e+00 6.000000e+00 3.000000e+01
         vertex 1.471443e+01 5.532089e+00 3.000000e+01
         vertex 1.446791e+01 5.285575e+00 3.000000e+01
      endloop
   endfacet
   facet normal 0.000000e+00 0.000000e+00 -1.000000e+00
      outer loop
         vertex 1.400000e+01 0.000000e+00 3.000000e+01
         vertex 4.000001e+00 0.000000e+00 3.000000e+01
         vertex 1.400000e+01 4.000000e+00 3.000000e+01
      endloop
   endfacet
   facet normal -0.000000e+00 0.000000e+00 -1.000000e+00
      outer loop
         vertex 1.400000e+01 4.000000e+00 3.000000e+01
         vertex 4.000001e+00 0.000000e+00 3.000000e+01
         vertex 4.000001e+00 6.000000e+00 3.000000e+01
      endloop
   endfacet
   facet normal 0.000000e+00 0.000000e+00 -1.000000e+00
      outer loop
         vertex 1.400000e+01 4.000000e+00 3.000000e+01
         vertex 4.000001e+00 6.000000e+00 3.000000e+01
         vertex 1.403039e+01 4.347296e+00 3.000000e+01
      endloop
   endfacet
   facet normal 0.000000e+00 0.000000e+00 -1.000000e+00
      outer loop
         vertex 1.403039e+01 4.347296e+00 3.000000e+01
         vertex 4.000001e+00 6.000000e+00 3.000000e+01
         vertex 1.412062e+01 4.684040e+00 3.000000e+01
      endloop
   endfacet
   facet normal -1.000000e+00 0.000000e+00 0.000000e+00
      outer loop
         vertex 1.400000e+01 4.000000e+00 4.000001e+00
         vertex 1.400000e+01 0.000000e+00 4.000001e+00
         vertex 1.400000e+01 4.000000e+00 3.000000e+01
      endloop
   endfacet
   facet normal -1.000000e+00 -0.000000e+00 0.000000e+00
      outer loop
         vertex 1.400000e+01 4.000000e+00 3.000000e+01
         vertex 1.400000e+01 0.000000e+00 4.000001e+00
         vertex 1.400000e+01 0.000000e+00 3.000000e+01
      endloop
   endfacet
   facet normal 0.000000e+00 -0.000000e+00 1.000000e+00
      outer loop
         vertex 1.868404e+01 5.879385e+00 4.000001e+00
         vertex 3.000000e+01 6.000000e+00 4.000001e+00
         vertex 1.834730e+01 5.969616e+00 4.000001e+00
      endloop
   endfacet
   facet normal 0.000000e+00 -0.000000e+00 1.000000e+00
      outer loop
         vertex 1.834730e+01 5.969616e+00 4.000001e+00
         vertex 3.000000e+01 6.000000e+00 4.000001e+00
         vertex 1.800000e+01 6.000000e+00 4.000001e+00
      endloop
   endfacet
   facet normal 0.000000e+00 -0.000000e+00 1.000000e+00
      outer loop
         vertex 1.987939e+01 4.684040e+00 4.000001e+00
         vertex 3.000000e+01 6.000000e+00 4.000001e+00
         vertex 1.973205e+01 5.000000e+00 4.000001e+00
      endloop
   endfacet
   facet normal 0.000000e+00 -0.000000e+00 1.000000e+00
      outer loop
         vertex 1.973205e+01 5.000000e+00 4.000001e+00
         vertex 3.000000e+01 6.000000e+00 4.000001e+00
         vertex 1.953209e+01 5.285575e+00 4.000001e+00
      endloop
   endfacet
   facet normal -0.000000e+00 0.000000e+00 1.000000e+00
      outer loop
         vertex 1.868404e+01 5.879385e+00 4.000001e+00
         vertex 1.900000e+01 5.732051e+00 4.000001e+00
         vertex 3.000000e+01 6.000000e+00 4.000001e+00
      endloop
   endfacet
   facet normal 0.000000e+00 0.000000e+00 1.000000e+00
      outer loop
         vertex 3.000000e+01 6.000000e+00 4.000001e+00
         vertex 1.900000e+01 5.732051e+00 4.000001e+00
         vertex 1.928558e+01 5.532089e+00 4.000001e+00
      endloop
   endfacet
   facet normal 0.000000e+00 0.000000e+00 1.000000e+00
      outer loop
         vertex 3.000000e+01 6.000000e+00 4.000001e+00
         vertex 1.928558e+01 5.532089e+00 4.000001e+00
         vertex 1.953209e+01 5.285575e+00 4.000001e+00
      endloop
   endfacet
   facet normal 0.000000e+00 0.000000e+00 1.000000e+00
      outer loop
         vertex 2.000000e+01 0.000000e+00 4.000001e+00
         vertex 3.000000e+01 0.000000e+00 4.000001e+00
         vertex 2.000000e+01 4.000000e+00 4.000001e+00
      endloop
   endfacet
   facet normal -0.000000e+00 0.000000e+00 1.000000e+00
      outer loop
         vertex 2.000000e+01 4.000000e+00 4.000001e+00
         vertex 3.000000e+01 0.000000e+00 4.000001e+00
         vertex 3.000000e+01 6.000000e+00 4.000001e+00
      endloop
   endfacet
   facet normal 0.000000e+00 -0.000000e+00 1.000000e+00
      outer loop
         vertex 2.000000e+01 4.000000e+00 4.000001e+00
         vertex 3.000000e+01 6.000000e+00 4.000001e+00
         vertex 1.996962e+01 4.347296e+00 4.000001e+00
      endloop
   endfacet
   facet normal 0.000000e+00 -0.000000e+00 1.000000e+00
      outer loop
         vertex 1.996962e+01 4.347296e+00 4.000001e+00
         vertex 3.000000e+01 6.000000e+00 4.000001e+00
         vertex 1.987939e+01 4.684040e+00 4.000001e+00
      endloop
   endfacet
   facet normal 1.000000e+00 0.000000e+00 0.000000e+00
      outer loop
         vertex 2.000000e+01 4.000000e+00 3.000000e+01
         vertex 2.000000e+01 0.000000e+00 3.000000e+01
         vertex 2.000000e+01 4.000000e+00 4.000001e+00
      endloop
   endfacet
   facet normal 1.000000e+00 0.000000e+00 0.000000e+00
      outer loop
         vertex 2.000000e+01 4.000000e+00 4.000001e+00
         vertex 2.000000e+01 0.000000e+00 3.000000e+01
         vertex 2.000000e+01 0.000000e+00 4.000001e+00
      endloop
   endfacet
   facet normal 0.000000e+00 0.000000e+00 -1.000000e+00
      outer loop
         vertex 1.834730e+01 5.969616e+00 3.000000e+01
         vertex 1.800000e+01 6.000000e+00 3.000000e+01
         vertex 3.000000e+01 6.000000e+00 3.000000e+01
      endloop
   endfacet
   facet normal 0.000000e+00 0.000000e+00 -1.000000e+00
      outer loop
         vertex 1.996962e+01 4.347296e+00 3.000000e+01
         vertex 1.987939e+01 4.684040e+00 3.000000e+01
         vertex 3.000000e+01 6.000000e+00 3.000000e+01
      endloop
   endfacet
   facet normal 0.000000e+00 0.000000e+00 -1.000000e+00
      outer loop
         vertex 1.987939e+01 4.684040e+00 3.000000e+01
         vertex 1.973205e+01 5.000000e+00 3.000000e+01
         vertex 3.000000e+01 6.000000e+00 3.000000e+01
      endloop
   endfacet
   facet normal 0.000000e+00 0.000000e+00 -1.000000e+00
      outer loop
         vertex 3.000000e+01 6.000000e+00 3.000000e+01
         vertex 1.973205e+01 5.000000e+00 3.000000e+01
         vertex 1.953209e+01 5.285575e+00 3.000000e+01
      endloop
   endfacet
   facet normal 0.000000e+00 0.000000e+00 -1.000000e+00
      outer loop
         vertex 3.000000e+01 6.000000e+00 3.000000e+01
         vertex 1.953209e+01 5.285575e+00 3.000000e+01
         vertex 1.928558e+01 5.532089e+00 3.000000e+01
      endloop
   endfacet
   facet normal 0.000000e+00 0.000000e+00 -1.000000e+00
      outer loop
         vertex 1.928558e+01 5.532089e+00 3.000000e+01
         vertex 1.900000e+01 5.732051e+00 3.000000e+01
         vertex 3.000000e+01 6.000000e+00 3.000000e+01
      endloop
   endfacet
   facet normal 0.000000e+00 0.000000e+00 -1.000000e+00
      outer loop
         vertex 3.000000e+01 6.000000e+00 3.000000e+01
         vertex 1.900000e+01 5.732051e+00 3.000000e+01
         vertex 1.868404e+01 5.879385e+00 3.000000e+01
      endloop
   endfacet
   facet normal 0.000000e+00 0.000000e+00 -1.000000e+00
      outer loop
         vertex 3.000000e+01 6.000000e+00 3.000000e+01
         vertex 1.868404e+01 5.879385e+00 3.000000e+01
         vertex 1.834730e+01 5.969616e+00 3.000000e+01
      endloop
   endfacet
   facet normal 0.000000e+00 0.000000e+00 -1.000000e+00
      outer loop
         vertex 3.000000e+01 0.000000e+00 3.000000e+01
         vertex 2.000000e+01 0.000000e+00 3.000000e+01
         vertex 3.000000e+01 6.000000e+00 3.000000e+01
      endloop
   endfacet
   facet normal 0.000000e+00 0.000000e+00 -1.000000e+00
      outer loop
         vertex 3.000000e+01 6.000000e+00 3.000000e+01
         vertex 2.000000e+01 0.000000e+00 3.000000e+01
         vertex 2.000000e+01 4.000000e+00 3.000000e+01
      endloop
   endfacet
   facet normal 0.000000e+00 0.000000e+00 -1.000000e+00
      outer loop
         vertex 3.000000e+01 6.000000e+00 3.000000e+01
         vertex 2.000000e+01 4.000000e+00 3.000000e+01
         vertex 1.996962e+01 4.347296e+00 3.000000e+01
      endloop
   endfacet
   facet normal -1.000000e+00 -0.000000e+00 -0.000000e+00
      outer loop
         vertex 3.000000e+01 6.000000e+00 3.000000e+01
         vertex 3.000000e+01 6.000000e+00 4.000001e+00
         vertex 3.000000e+01 0.000000e+00 3.000000e+01
      endloop
   endfacet
   facet normal -1.000000e+00 0.000000e+00 0.000000e+00
      outer loop
         vertex 3.000000e+01 0.000000e+00 3.000000e+01
         vertex 3.000000e+01 6.000000e+00 4.000001e+00
         vertex 3.000000e+01 0.000000e+00 4.000001e+00
      endloop
   endfacet
   facet normal 8.715547e-02 9.961947e-01 -0.000000e+00
      outer loop
         vertex 1.800000e+01 6.000000e+00 4.000001e+00
         vertex 1.800000e+01 6.000000e+00 3.000000e+01
         vertex 1.834730e+01 5.969616e+00 3.000000e+01
      endloop
   endfacet
   facet normal 8.715547e-02 9.961947e-01 0.000000e+00
      outer loop
         vertex 1.800000e+01 6.000000e+00 4.000001e+00
         vertex 1.834730e+01 5.969616e+00 3.000000e+01
         vertex 1.834730e+01 5.969616e+00 4.000001e+00
      endloop
   endfacet
   facet normal 2.588191e-01 9.659258e-01 -0.000000e+00
      outer loop
         vertex 1.834730e+01 5.969616e+00 4.000001e+00
         vertex 1.834730e+01 5.969616e+00 3.000000e+01
         vertex 1.868404e+01 5.879385e+00 3.000000e+01
      endloop
   endfacet
   facet normal 2.588191e-01 9.659258e-01 0.000000e+00
      outer loop
         vertex 1.834730e+01 5.969616e+00 4.000001e+00
         vertex 1.868404e+01 5.879385e+00 3.000000e+01
         vertex 1.868404e+01 5.879385e+00 4.000001e+00
      endloop
   endfacet
   facet normal 4.226189e-01 9.063075e-01 -0.000000e+00
      outer loop
         vertex 1.868404e+01 5.879385e+00 4.000001e+00
         vertex 1.868404e+01 5.879385e+00 3.000000e+01
         vertex 1.900000e+01 5.732051e+00 3.000000e+01
      endloop
   endfacet
   facet normal 4.226189e-01 9.063075e-01 0.000000e+00
      outer loop
         vertex 1.868404e+01 5.879385e+00 4.000001e+00
         vertex 1.900000e+01 5.732051e+00 3.000000e+01
         vertex 1.900000e+01 5.732051e+00 4.000001e+00
      endloop
   endfacet
   facet normal 5.735765e-01 8.191520e-01 -0.000000e+00
      outer loop
         vertex 1.900000e+01 5.732051e+00 4.000001e+00
         vertex 1.900000e+01 5.732051e+00 3.000000e+01
         vertex 1.928558e+01 5.532089e+00 3.000000e+01
      endloop
   endfacet
   facet normal 5.735765e-01 8.191520e-01 0.000000e+00
      outer loop
         vertex 1.900000e+01 5.732051e+00 4.000001e+00
         vertex 1.928558e+01 5.532089e+00 3.000000e+01
         vertex 1.928558e+01 5.532089e+00 4.000001e+00
      endloop
   endfacet
   facet normal 7.071068e-01 7.071068e-01 -0.000000e+00
      outer loop
         vertex 1.928558e+01 5.532089e+00 4.000001e+00
         vertex 1.928558e+01 5.532089e+00 3.000000e+01
         vertex 1.953209e+01 5.285575e+00 3.000000e+01
      endloop
   endfacet
   facet normal 7.071068e-01 7.071068e-01 0.000000e+00
      outer loop
         vertex 1.928558e+01 5.532089e+00 4.000001e+00
         vertex 1.953209e+01 5.285575e+00 3.000000e+01
         vertex 1.953209e+01 5.285575e+00 4.000001e+00
      endloop
   endfacet
   facet normal 8.191520e-01 5.735765e-01 -0.000000e+00
      outer loop
         vertex 1.953209e+01 5.285575e+00 4.000001e+00
         vertex 1.953209e+01 5.285575e+00 3.000000e+01
         vertex 1.973205e+01 5.000000e+00 3.000000e+01
      endloop
   endfacet
   facet normal 8.191520e-01 5.735765e-01 0.000000e+00
      outer loop
         vertex 1.953209e+01 5.285575e+00 4.000001e+00
         vertex 1.973205e+01 5.000000e+00 3.000000e+01
         vertex 1.973205e+01 5.000000e+00 4.000001e+00
      endloop
   endfacet
   facet normal 9.063079e-01 4.226181e-01 -0.000000e+00
      outer loop
         vertex 1.973205e+01 5.000000e+00 4.000001e+00
         vertex 1.973205e+01 5.000000e+00 3.000000e+01
         vertex 1.987939e+01 4.684040e+00 3.000000e+01
      endloop
   endfacet
   facet normal 9.063079e-01 4.226181e-01 0.000000e+00
      outer loop
         vertex 1.973205e+01 5.000000e+00 4.000001e+00
         vertex 1.987939e+01 4.684040e+00 3.000000e+01
         vertex 1.987939e+01 4.684040e+00 4.000001e+00
      endloop
   endfacet
   facet normal 9.659258e-01 2.588191e-01 -0.000000e+00
      outer loop
         vertex 1.987939e+01 4.684040e+00 4.000001e+00
         vertex 1.987939e+01 4.684040e+00 3.000000e+01
         vertex 1.996962e+01 4.347296e+00 3.000000e+01
      endloop
   endfacet
   facet normal 9.659258e-01 2.588191e-01 0.000000e+00
      outer loop
         vertex 1.987939e+01 4.684040e+00 4.000001e+00
         vertex 1.996962e+01 4.347296e+00 3.000000e+01
         vertex 1.996962e+01 4.347296e+00 4.000001e+00
      endloop
   endfacet
   facet normal 9.961947e-01 8.715616e-02 -0.000000e+00
      outer loop
         vertex 1.996962e+01 4.347296e+00 4.000001e+00
         vertex 1.996962e+01 4.347296e+00 3.000000e+01
         vertex 2.000000e+01 4.000000e+00 3.000000e+01
      endloop
   endfacet
   facet normal 9.961947e-01 8.715616e-02 0.000000e+00
      outer loop
         vertex 1.996962e+01 4.347296e+00 4.000001e+00
         vertex 2.000000e+01 4.000000e+00 3.000000e+01
         vertex 2.000000e+01 4.000000e+00 4.000001e+00
      endloop
   endfacet
   facet normal -8.715547e-02 9.961947e-01 0.000000e+00
      outer loop
         vertex 1.600000e+01 6.000000e+00 3.000000e+01
         vertex 1.600000e+01 6.000000e+00 4.000001e+00
         vertex 1.565270e+01 5.969616e+00 4.000001e+00
      endloop
   endfacet
   facet normal -8.715547e-02 9.961947e-01 0.000000e+00
      outer loop
         vertex 1.600000e+01 6.000000e+00 3.000000e+01
         vertex 1.565270e+01 5.969616e+00 4.000001e+00
         vertex 1.565270e+01 5.969616e+00 3.000000e+01
      endloop
   endfacet
   facet normal -2.588191e-01 9.659258e-01 0.000000e+00
      outer loop
         vertex 1.565270e+01 5.969616e+00 3.000000e+01
         vertex 1.565270e+01 5.969616e+00 4.000001e+00
         vertex 1.531596e+01 5.879385e+00 4.000001e+00
      endloop
   endfacet
   facet normal -2.588191e-01 9.659258e-01 0.000000e+00
      outer loop
         vertex 1.565270e+01 5.969616e+00 3.000000e+01
         vertex 1.531596e+01 5.879385e+00 4.000001e+00
         vertex 1.531596e+01 5.879385e+00 3.000000e+01
      endloop
   endfacet
   facet normal -4.226189e-01 9.063075e-01 0.000000e+00
      outer loop
         vertex 1.531596e+01 5.879385e+00 3.000000e+01
         vertex 1.531596e+01 5.879385e+00 4.000001e+00
         vertex 1.500000e+01 5.732051e+00 4.000001e+00
      endloop
   endfacet
   facet normal -4.226189e-01 9.063075e-01 0.000000e+00
      outer loop
         vertex 1.531596e+01 5.879385e+00 3.000000e+01
         vertex 1.500000e+01 5.732051e+00 4.000001e+00
         vertex 1.500000e+01 5.732051e+00 3.000000e+01
      endloop
   endfacet
   facet normal -5.735765e-01 8.191520e-01 0.000000e+00
      outer loop
         vertex 1.500000e+01 5.732051e+00 3.000000e+01
         vertex 1.500000e+01 5.732051e+00 4.000001e+00
         vertex 1.471443e+01 5.532089e+00 4.000001e+00
      endloop
   endfacet
   facet normal -5.735765e-01 8.191520e-01 0.000000e+00
      outer loop
         vertex 1.500000e+01 5.732051e+00 3.000000e+01
         vertex 1.471443e+01 5.532089e+00 4.000001e+00
         vertex 1.471443e+01 5.532089e+00 3.000000e+01
      endloop
   endfacet
   facet normal -7.071068e-01 7.071068e-01 0.000000e+00
      outer loop
         vertex 1.471443e+01 5.532089e+00 3.000000e+01
         vertex 1.471443e+01 5.532089e+00 4.000001e+00
         vertex 1.446791e+01 5.285575e+00 4.000001e+00
      endloop
   endfacet
   facet normal -7.071068e-01 7.071068e-01 0.000000e+00
      outer loop
         vertex 1.471443e+01 5.532089e+00 3.000000e+01
         vertex 1.446791e+01 5.285575e+00 4.000001e+00
         vertex 1.446791e+01 5.285575e+00 3.000000e+01
      endloop
   endfacet
   facet normal -8.191520e-01 5.735765e-01 0.000000e+00
      outer loop
         vertex 1.446791e+01 5.285575e+00 3.000000e+01
         vertex 1.446791e+01 5.285575e+00 4.000001e+00
         vertex 1.426795e+01 5.000000e+00 4.000001e+00
      endloop
   endfacet
   facet normal -8.191520e-01 5.735765e-01 0.000000e+00
      outer loop
         vertex 1.446791e+01 5.285575e+00 3.000000e+01
         vertex 1.426795e+01 5.000000e+00 4.000001e+00
         vertex 1.426795e+01 5.000000e+00 3.000000e+01
      endloop
   endfacet
   facet normal -9.063079e-01 4.226181e-01 0.000000e+00
      outer loop
         vertex 1.426795e+01 5.000000e+00 3.000000e+01
         vertex 1.426795e+01 5.000000e+00 4.000001e+00
         vertex 1.412062e+01 4.684040e+00 4.000001e+00
      endloop
   endfacet
   facet normal -9.063079e-01 4.226181e-01 0.000000e+00
      outer loop
         vertex 1.426795e+01 5.000000e+00 3.000000e+01
         vertex 1.412062e+01 4.684040e+00 4.000001e+00
         vertex 1.412062e+01 4.684040e+00 3.000000e+01
      endloop
   endfacet
   facet normal -9.659258e-01 2.588191e-01 0.000000e+00
      outer loop
         vertex 1.412062e+01 4.684040e+00 3.000000e+01
         vertex 1.412062e+01 4.684040e+00 4.000001e+00
         vertex 1.403039e+01 4.347296e+00 4.000001e+00
      endloop
   endfacet
   facet normal -9.659258e-01 2.588191e-01 0.000000e+00
      outer loop
         vertex 1.412062e+01 4.684040e+00 3.000000e+01
         vertex 1.403039e+01 4.347296e+00 4.000001e+00
         vertex 1.403039e+01 4.347296e+00 3.000000e+01
      endloop
   endfacet
   facet normal -9.961947e-01 8.715616e-02 0.000000e+00
      outer loop
         vertex 1.403039e+01 4.347296e+00 3.000000e+01
         vertex 1.403039e+01 4.347296e+00 4.000001e+00
         vertex 1.400000e+01 4.000000e+00 4.000001e+00
      endloop
   endfacet
   facet normal -9.961947e-01 8.715616e-02 0.000000e+00
      outer loop
         vertex 1.403039e+01 4.347296e+00 3.000000e+01
         vertex 1.400000e+01 4.000000e+00 4.000001e+00
         vertex 1.400000e+01 4.000000e+00 3.000000e+01
      endloop
   endfacet
   facet normal -9.969171e-01 0.000000e+00 7.846166e-02
      outer loop
         vertex 0.000000e+00 6.000000e+00 3.200000e+01
         vertex 0.000000e+00 0.000000e+00 3.200000e+01
         vertex 2.462417e-02 0.000000e+00 3.231287e+01
      endloop
   endfacet
   facet normal -9.969171e-01 0.000000e+00 7.846166e-02
      outer loop
         vertex 0.000000e+00 6.000000e+00 3.200000e+01
         vertex 2.462417e-02 0.000000e+00 3.231287e+01
         vertex 2.462417e-02 6.000000e+00 3.231287e+01
      endloop
   endfacet
   facet normal -9.723700e-01 0.000000e+00 2.334450e-01
      outer loop
         vertex 2.462417e-02 6.000000e+00 3.231287e+01
         vertex 2.462417e-02 0.000000e+00 3.231287e+01
         vertex 9.788759e-02 0.000000e+00 3.261803e+01
      endloop
   endfacet
   facet normal -9.723700e-01 0.000000e+00 2.334450e-01
      outer loop
         vertex 2.462417e-02 6.000000e+00 3.231287e+01
         vertex 9.788759e-02 0.000000e+00 3.261803e+01
         vertex 9.788759e-02 6.000000e+00 3.261803e+01
      endloop
   endfacet
   facet normal -9.238798e-01 0.000000e+00 3.826827e-01
      outer loop
         vertex 9.788759e-02 6.000000e+00 3.261803e+01
         vertex 9.788759e-02 0.000000e+00 3.261803e+01
         vertex 2.179872e-01 0.000000e+00 3.290798e+01
      endloop
   endfacet
   facet normal -9.238798e-01 0.000000e+00 3.826827e-01
      outer loop
         vertex 9.788759e-02 6.000000e+00 3.261803e+01
         vertex 2.179872e-01 0.000000e+00 3.290798e+01
         vertex 2.179872e-01 6.000000e+00 3.290798e+01
      endloop
   endfacet
   facet normal -8.526390e-01 0.000000e+00 5.225004e-01
      outer loop
         vertex 2.179872e-01 6.000000e+00 3.290798e+01
         vertex 2.179872e-01 0.000000e+00 3.290798e+01
         vertex 3.819671e-01 0.000000e+00 3.317557e+01
      endloop
   endfacet
   facet normal -8.526390e-01 0.000000e+00 5.225004e-01
      outer loop
         vertex 2.179872e-01 6.000000e+00 3.290798e+01
         vertex 3.819671e-01 0.000000e+00 3.317557e+01
         vertex 3.819671e-01 6.000000e+00 3.317557e+01
      endloop
   endfacet
   facet normal -7.604079e-01 0.000000e+00 6.494457e-01
      outer loop
         vertex 3.819671e-01 6.000000e+00 3.317557e+01
         vertex 3.819671e-01 0.000000e+00 3.317557e+01
         vertex 5.857870e-01 0.000000e+00 3.341421e+01
      endloop
   endfacet
   facet normal -7.604079e-01 0.000000e+00 6.494457e-01
      outer loop
         vertex 3.819671e-01 6.000000e+00 3.317557e+01
         vertex 5.857870e-01 0.000000e+00 3.341421e+01
         vertex 5.857870e-01 6.000000e+00 3.341421e+01
      endloop
   endfacet
   facet normal -6.494457e-01 0.000000e+00 7.604079e-01
      outer loop
         vertex 5.857870e-01 6.000000e+00 3.341421e+01
         vertex 5.857870e-01 0.000000e+00 3.341421e+01
         vertex 8.244310e-01 0.000000e+00 3.361803e+01
      endloop
   endfacet
   facet normal -6.494457e-01 0.000000e+00 7.604079e-01
      outer loop
         vertex 5.857870e-01 6.000000e+00 3.341421e+01
         vertex 8.244310e-01 0.000000e+00 3.361803e+01
         vertex 8.244310e-01 6.000000e+00 3.361803e+01
      endloop
   endfacet
   facet normal -5.225004e-01 0.000000e+00 8.526390e-01
      outer loop
         vertex 8.244310e-01 6.000000e+00 3.361803e+01
         vertex 8.244310e-01 0.000000e+00 3.361803e+01
         vertex 1.092020e+00 0.000000e+00 3.378201e+01
      endloop
   endfacet
   facet normal -5.225004e-01 0.000000e+00 8.526390e-01
      outer loop
         vertex 8.244310e-01 6.000000e+00 3.361803e+01
         vertex 1.092020e+00 0.000000e+00 3.378201e+01
         vertex 1.092020e+00 6.000000e+00 3.378201e+01
      endloop
   endfacet
   facet normal -3.826827e-01 0.000000e+00 9.238798e-01
      outer loop
         vertex 1.092020e+00 6.000000e+00 3.378201e+01
         vertex 1.092020e+00 0.000000e+00 3.378201e+01
         vertex 1.381967e+00 0.000000e+00 3.390211e+01
      endloop
   endfacet
   facet normal -3.826827e-01 0.000000e+00 9.238798e-01
      outer loop
         vertex 1.092020e+00 6.000000e+00 3.378201e+01
         vertex 1.381967e+00 0.000000e+00 3.390211e+01
         vertex 1.381967e+00 6.000000e+00 3.390211e+01
      endloop
   endfacet
   facet normal -2.334450e-01 0.000000e+00 9.723700e-01
      outer loop
         vertex 1.381967e+00 6.000000e+00 3.390211e+01
         vertex 1.381967e+00 0.000000e+00 3.390211e+01
         vertex 1.687132e+00 0.000000e+00 3.397538e+01
      endloop
   endfacet
   facet normal -2.334450e-01 0.000000e+00 9.723700e-01
      outer loop
         vertex 1.381967e+00 6.000000e+00 3.390211e+01
         vertex 1.687132e+00 0.000000e+00 3.397538e+01
         vertex 1.687132e+00 6.000000e+00 3.397538e+01
      endloop
   endfacet
   facet normal -7.846166e-02 0.000000e+00 9.969171e-01
      outer loop
         vertex 1.687132e+00 6.000000e+00 3.397538e+01
         vertex 1.687132e+00 0.000000e+00 3.397538e+01
         vertex 2.000001e+00 0.000000e+00 3.400000e+01
      endloop
   endfacet
   facet normal -7.846166e-02 0.000000e+00 9.969171e-01
      outer loop
         vertex 1.687132e+00 6.000000e+00 3.397538e+01
         vertex 2.000001e+00 0.000000e+00 3.400000e+01
         vertex 2.000001e+00 6.000000e+00 3.400000e+01
      endloop
   endfacet
   facet normal 7.846166e-02 0.000000e+00 9.969171e-01
      outer loop
         vertex 3.200000e+01 6.000000e+00 3.400000e+01
         vertex 3.200000e+01 0.000000e+00 3.400000e+01
         vertex 3.231287e+01 0.000000e+00 3.397538e+01
      endloop
   endfacet
   facet normal 7.846166e-02 0.000000e+00 9.969171e-01
      outer loop
         vertex 3.200000e+01 6.000000e+00 3.400000e+01
         vertex 3.231287e+01 0.000000e+00 3.397538e+01
         vertex 3.231287e+01 6.000000e+00 3.397538e+01
      endloop
   endfacet
   facet normal 2.334450e-01 0.000000e+00 9.723700e-01
      outer loop
         vertex 3.231287e+01 6.000000e+00 3.397538e+01
         vertex 3.231287e+01 0.000000e+00 3.397538e+01
         vertex 3.261803e+01 0.000000e+00 3.390211e+01
      endloop
   endfacet
   facet normal 2.334450e-01 0.000000e+00 9.723700e-01
      outer loop
         vertex 3.231287e+01 6.000000e+00 3.397538e+01
         vertex 3.261803e+01 0.000000e+00 3.390211e+01
         vertex 3.261803e+01 6.000000e+00 3.390211e+01
      endloop
   endfacet
   facet normal 3.826827e-01 0.000000e+00 9.238798e-01
      outer loop
         vertex 3.261803e+01 6.000000e+00 3.390211e+01
         vertex 3.261803e+01 0.000000e+00 3.390211e+01
         vertex 3.290798e+01 0.000000e+00 3.378201e+01
      endloop
   endfacet
   facet normal 3.826827e-01 0.000000e+00 9.238798e-01
      outer loop
         vertex 3.261803e+01 6.000000e+00 3.390211e+01
         vertex 3.290798e+01 0.000000e+00 3.378201e+01
         vertex 3.290798e+01 6.000000e+00 3.378201e+01
      endloop
   endfacet
   facet normal 5.225004e-01 0.000000e+00 8.526390e-01
      outer loop
         vertex 3.290798e+01 6.000000e+00 3.378201e+01
         vertex 3.290798e+01 0.000000e+00 3.378201e+01
         vertex 3.317557e+01 0.000000e+00 3.361803e+01
      endloop
   endfacet
   facet normal 5.225004e-01 0.000000e+00 8.526390e-01
      outer loop
         vertex 3.290798e+01 6.000000e+00 3.378201e+01
         vertex 3.317557e+01 0.000000e+00 3.361803e+01
         vertex 3.317557e+01 6.000000e+00 3.361803e+01
      endloop
   endfacet
   facet normal 6.494457e-01 0.000000e+00 7.604079e-01
      outer loop
         vertex 3.317557e+01 6.000000e+00 3.361803e+01
         vertex 3.317557e+01 0.000000e+00 3.361803e+01
         vertex 3.341421e+01 0.000000e+00 3.341421e+01
      endloop
   endfacet
   facet normal 6.494457e-01 0.000000e+00 7.604079e-01
      outer loop
         vertex 3.317557e+01 6.000000e+00 3.361803e+01
         vertex 3.341421e+01 0.000000e+00 3.341421e+01
         vertex 3.341421e+01 6.000000e+00 3.341421e+01
      endloop
   endfacet
   facet normal 7.604079e-01 0.000000e+00 6.494457e-01
      outer loop
         vertex 3.341421e+01 6.000000e+00 3.341421e+01
         vertex 3.341421e+01 0.000000e+00 3.341421e+01
         vertex 3.361803e+01 0.000000e+00 3.317557e+01
      endloop
   endfacet
   facet normal 7.604079e-01 0.000000e+00 6.494457e-01
      outer loop
         vertex 3.341421e+01 6.000000e+00 3.341421e+01
         vertex 3.361803e+01 0.000000e+00 3.317557e+01
         vertex 3.361803e+01 6.000000e+00 3.317557e+01
      endloop
   endfacet
   facet normal 8.526390e-01 0.000000e+00 5.225004e-01
      outer loop
         vertex 3.361803e+01 6.000000e+00 3.317557e+01
         vertex 3.361803e+01 0.000000e+00 3.317557e+01
         vertex 3.378201e+01 0.000000e+00 3.290798e+01
      endloop
   endfacet
   facet normal 8.526390e-01 0.000000e+00 5.225004e-01
      outer loop
         vertex 3.361803e+01 6.000000e+00 3.317557e+01
         vertex 3.378201e+01 0.000000e+00 3.290798e+01
         vertex 3.378201e+01 6.000000e+00 3.290798e+01
      endloop
   endfacet
   facet normal 9.238798e-01 0.000000e+00 3.826827e-01
      outer loop
         vertex 3.378201e+01 6.000000e+00 3.290798e+01
         vertex 3.378201e+01 0.000000e+00 3.290798e+01
         vertex 3.390211e+01 0.000000e+00 3.261803e+01
      endloop
   endfacet
   facet normal 9.238798e-01 0.000000e+00 3.826827e-01
      outer loop
         vertex 3.378201e+01 6.000000e+00 3.290798e+01
         vertex 3.390211e+01 0.000000e+00 3.261803e+01
         vertex 3.390211e+01 6.000000e+00 3.261803e+01
      endloop
   endfacet
   facet normal 9.723700e-01 0.000000e+00 2.334450e-01
      outer loop
         vertex 3.390211e+01 6.000000e+00 3.261803e+01
         vertex 3.390211e+01 0.000000e+00 3.261803e+01
         vertex 3.397538e+01 0.000000e+00 3.231287e+01
      endloop
   endfacet
   facet normal 9.723700e-01 0.000000e+00 2.334450e-01
      outer loop
         vertex 3.390211e+01 6.000000e+00 3.261803e+01
         vertex 3.397538e+01 0.000000e+00 3.231287e+01
         vertex 3.397538e+01 6.000000e+00 3.231287e+01
      endloop
   endfacet
   facet normal 9.969171e-01 0.000000e+00 7.846166e-02
      outer loop
         vertex 3.397538e+01 6.000000e+00 3.231287e+01
         vertex 3.397538e+01 0.000000e+00 3.231287e+01
         vertex 3.400000e+01 0.000000e+00 3.200000e+01
      endloop
   endfacet
   facet normal 9.969171e-01 0.000000e+00 7.846166e-02
      outer loop
         vertex 3.397538e+01 6.000000e+00 3.231287e+01
         vertex 3.400000e+01 0.000000e+00 3.200000e+01
         vertex 3.400000e+01 6.000000e+00 3.200000e+01
      endloop
   endfacet
   facet normal 9.969171e-01 0.000000e+00 -7.846166e-02
      outer loop
         vertex 3.400000e+01 6.000000e+00 2.000001e+00
         vertex 3.400000e+01 0.000000e+00 2.000001e+00
         vertex 3.397538e+01 0.000000e+00 1.687132e+00
      endloop
   endfacet
   facet normal 9.969171e-01 0.000000e+00 -7.846166e-02
      outer loop
         vertex 3.400000e+01 6.000000e+00 2.000001e+00
         vertex 3.397538e+01 0.000000e+00 1.687132e+00
         vertex 3.397538e+01 6.000000e+00 1.687132e+00
      endloop
   endfacet
   facet normal 9.723700e-01 0.000000e+00 -2.334450e-01
      outer loop
         vertex 3.397538e+01 6.000000e+00 1.687132e+00
         vertex 3.397538e+01 0.000000e+00 1.687132e+00
         vertex 3.390211e+01 0.000000e+00 1.381967e+00
      endloop
   endfacet
   facet normal 9.723700e-01 0.000000e+00 -2.334450e-01
      outer loop
         vertex 3.397538e+01 6.000000e+00 1.687132e+00
         vertex 3.390211e+01 0.000000e+00 1.381967e+00
         vertex 3.390211e+01 6.000000e+00 1.381967e+00
      endloop
   endfacet
   facet normal 9.238798e-01 0.000000e+00 -3.826827e-01
      outer loop
         vertex 3.390211e+01 6.000000e+00 1.381967e+00
         vertex 3.390211e+01 0.000000e+00 1.381967e+00
         vertex 3.378201e+01 0.000000e+00 1.092020e+00
      endloop
   endfacet
   facet normal 9.238798e-01 0.000000e+00 -3.826827e-01
      outer loop
         vertex 3.390211e+01 6.000000e+00 1.381967e+00
         vertex 3.378201e+01 0.000000e+00 1.092020e+00
         vertex 3.378201e+01 6.000000e+00 1.092020e+00
      endloop
   endfacet
   facet normal 8.526390e-01 0.000000e+00 -5.225004e-01
      outer loop
         vertex 3.378201e+01 6.000000e+00 1.092020e+00
         vertex 3.378201e+01 0.000000e+00 1.092020e+00
         vertex 3.361803e+01 0.000000e+00 8.244310e-01
      endloop
   endfacet
   facet normal 8.526390e-01 0.000000e+00 -5.225004e-01
      outer loop
         vertex 3.378201e+01 6.000000e+00 1.092020e+00
         vertex 3.361803e+01 0.000000e+00 8.244310e-01
         vertex 3.361803e+01 6.000000e+00 8.244310e-01
      endloop
   endfacet
   facet normal 7.604079e-01 0.000000e+00 -6.494457e-01
      outer loop
         vertex 3.361803e+01 6.000000e+00 8.244310e-01
         vertex 3.361803e+01 0.000000e+00 8.244310e-01
         vertex 3.341421e+01 0.000000e+00 5.857870e-01
      endloop
   endfacet
   facet normal 7.604079e-01 0.000000e+00 -6.494457e-01
      outer loop
         vertex 3.361803e+01 6.000000e+00 8.244310e-01
         vertex 3.341421e+01 0.000000e+00 5.857870e-01
         vertex 3.341421e+01 6.000000e+00 5.857870e-01
      endloop
   endfacet
   facet normal 6.494457e-01 0.000000e+00 -7.604079e-01
      outer loop
         vertex 3.341421e+01 6.000000e+00 5.857870e-01
         vertex 3.341421e+01 0.000000e+00 5.857870e-01
         vertex 3.317557e+01 0.000000e+00 3.819671e-01
      endloop
   endfacet
   facet normal 6.494457e-01 0.000000e+00 -7.604079e-01
      outer loop
         vertex 3.341421e+01 6.000000e+00 5.857870e-01
         vertex 3.317557e+01 0.000000e+00 3.819671e-01
         vertex 3.317557e+01 6.000000e+00 3.819671e-01
      endloop
   endfacet
   facet normal 5.225004e-01 0.000000e+00 -8.526390e-01
      outer loop
         vertex 3.317557e+01 6.000000e+00 3.819671e-01
         vertex 3.317557e+01 0.000000e+00 3.819671e-01
         vertex 3.290798e+01 0.000000e+00 2.179872e-01
      endloop
   endfacet
   facet normal 5.225004e-01 0.000000e+00 -8.526390e-01
      outer loop
         vertex 3.317557e+01 6.000000e+00 3.819671e-01
         vertex 3.290798e+01 0.000000e+00 2.179872e-01
         vertex 3.290798e+01 6.000000e+00 2.179872e-01
      endloop
   endfacet
   facet normal 3.826827e-01 0.000000e+00 -9.238798e-01
      outer loop
         vertex 3.290798e+01 6.000000e+00 2.179872e-01
         vertex 3.290798e+01 0.000000e+00 2.179872e-01
         vertex 3.261803e+01 0.000000e+00 9.788759e-02
      endloop
   endfacet
   facet normal 3.826827e-01 0.000000e+00 -9.238798e-01
      outer loop
         vertex 3.290798e+01 6.000000e+00 2.179872e-01
         vertex 3.261803e+01 0.000000e+00 9.788759e-02
         vertex 3.261803e+01 6.000000e+00 9.788759e-02
      endloop
   endfacet
   facet normal 2.334450e-01 0.000000e+00 -9.723700e-01
      outer loop
         vertex 3.261803e+01 6.000000e+00 9.788759e-02
         vertex 3.261803e+01 0.000000e+00 9.788759e-02
         vertex 3.231287e+01 0.000000e+00 2.462417e-02
      endloop
   endfacet
   facet normal 2.334450e-01 0.000000e+00 -9.723700e-01
      outer loop
         vertex 3.261803e+01 6.000000e+00 9.788759e-02
         vertex 3.231287e+01 0.000000e+00 2.462417e-02
         vertex 3.231287e+01 6.000000e+00 2.462417e-02
      endloop
   endfacet
   facet normal 7.846166e-02 0.000000e+00 -9.969171e-01
      outer loop
         vertex 3.231287e+01 6.000000e+00 2.462417e-02
         vertex 3.231287e+01 0.000000e+00 2.462417e-02
         vertex 3.200000e+01 0.000000e+00 0.000000e+00
      endloop
   endfacet
   facet normal 7.846166e-02 0.000000e+00 -9.969171e-01
      outer loop
         vertex 3.231287e+01 6.000000e+00 2.462417e-02
         vertex 3.200000e+01 0.000000e+00 0.000000e+00
         vertex 3.200000e+01 6.000000e+00 0.000000e+00
      endloop
   endfacet
   facet normal -7.846166e-02 -0.000000e+00 -9.969171e-01
      outer loop
         vertex 2.000001e+00 6.000000e+00 0.000000e+00
         vertex 2.000001e+00 0.000000e+00 0.000000e+00
         vertex 1.687132e+00 0.000000e+00 2.462417e-02
      endloop
   endfacet
   facet normal -7.846166e-02 0.000000e+00 -9.969171e-01
      outer loop
         vertex 2.000001e+00 6.000000e+00 0.000000e+00
         vertex 1.687132e+00 0.000000e+00 2.462417e-02
         vertex 1.687132e+00 6.000000e+00 2.462417e-02
      endloop
   endfacet
   facet normal -2.334450e-01 -0.000000e+00 -9.723700e-01
      outer loop
         vertex 1.687132e+00 6.000000e+00 2.462417e-02
         vertex 1.687132e+00 0.000000e+00 2.462417e-02
         vertex 1.381967e+00 0.000000e+00 9.788759e-02
      endloop
   endfacet
   facet normal -2.334450e-01 0.000000e+00 -9.723700e-01
      outer loop
         vertex 1.687132e+00 6.000000e+00 2.462417e-02
         vertex 1.381967e+00 0.000000e+00 9.788759e-02
         vertex 1.381967e+00 6.000000e+00 9.788759e-02
      endloop
   endfacet
   facet normal -3.826827e-01 -0.000000e+00 -9.238798e-01
      outer loop
         vertex 1.381967e+00 6.000000e+00 9.788759e-02
         vertex 1.381967e+00 0.000000e+00 9.788759e-02
         vertex 1.092020e+00 0.000000e+00 2.179872e-01
      endloop
   endfacet
   facet normal -3.826827e-01 0.000000e+00 -9.238798e-01
      outer loop
         vertex 1.381967e+00 6.000000e+00 9.788759e-02
         vertex 1.092020e+00 0.000000e+00 2.179872e-01
         vertex 1.092020e+00 6.000000e+00 2.179872e-01
      endloop
   endfacet
   facet normal -5.225004e-01 -0.000000e+00 -8.526390e-01
      outer loop
         vertex 1.092020e+00 6.000000e+00 2.179872e-01
         vertex 1.092020e+00 0.000000e+00 2.179872e-01
         vertex 8.244310e-01 0.000000e+00 3.819671e-01
      endloop
   endfacet
   facet normal -5.225004e-01 0.000000e+00 -8.526390e-01
      outer loop
         vertex 1.092020e+00 6.000000e+00 2.179872e-01
         vertex 8.244310e-01 0.000000e+00 3.819671e-01
         vertex 8.244310e-01 6.000000e+00 3.819671e-01
      endloop
   endfacet
   facet normal -6.494457e-01 -0.000000e+00 -7.604079e-01
      outer loop
         vertex 8.244310e-01 6.000000e+00 3.819671e-01
         vertex 8.244310e-01 0.000000e+00 3.819671e-01
         vertex 5.857870e-01 0.000000e+00 5.857870e-01
      endloop
   endfacet
   facet normal -6.494457e-01 0.000000e+00 -7.604079e-01
      outer loop
         vertex 8.244310e-01 6.000000e+00 3.819671e-01
         vertex 5.857870e-01 0.000000e+00 5.857870e-01
         vertex 5.857870e-01 6.000000e+00 5.857870e-01
      endloop
   endfacet
   facet normal -7.604079e-01 -0.000000e+00 -6.494457e-01
      outer loop
         vertex 5.857870e-01 6.000000e+00 5.857870e-01
         vertex 5.857870e-01 0.000000e+00 5.857870e-01
         vertex 3.819671e-01 0.000000e+00 8.244310e-01
      endloop
   endfacet
   facet normal -7.604079e-01 0.000000e+00 -6.494457e-01
      outer loop
         vertex 5.857870e-01 6.000000e+00 5.857870e-01
         vertex 3.819671e-01 0.000000e+00 8.244310e-01
         vertex 3.819671e-01 6.000000e+00 8.244310e-01
      endloop
   endfacet
   facet normal -8.526390e-01 -0.000000e+00 -5.225004e-01
      outer loop
         vertex 3.819671e-01 6.000000e+00 8.244310e-01
         vertex 3.819671e-01 0.000000e+00 8.244310e-01
         vertex 2.179872e-01 0.000000e+00 1.092020e+00
      endloop
   endfacet
   facet normal -8.526390e-01 0.000000e+00 -5.225004e-01
      outer loop
         vertex 3.819671e-01 6.000000e+00 8.244310e-01
         vertex 2.179872e-01 0.000000e+00 1.092020e+00
         vertex 2.179872e-01 6.000000e+00 1.092020e+00
      endloop
   endfacet
   facet normal -9.238798e-01 -0.000000e+00 -3.826827e-01
      outer loop
         vertex 2.179872e-01 6.000000e+00 1.092020e+00
         vertex 2.179872e-01 0.000000e+00 1.092020e+00
         vertex 9.788759e-02 0.000000e+00 1.381967e+00
      endloop
   endfacet
   facet normal -9.238798e-01 0.000000e+00 -3.826827e-01
      outer loop
         vertex 2.179872e-01 6.000000e+00 1.092020e+00
         vertex 9.788759e-02 0.000000e+00 1.381967e+00
         vertex 9.788759e-02 6.000000e+00 1.381967e+00
      endloop
   endfacet
   facet normal -9.723700e-01 -0.000000e+00 -2.334450e-01
      outer loop
         vertex 9.788759e-02 6.000000e+00 1.381967e+00
         vertex 9.788759e-02 0.000000e+00 1.381967e+00
         vertex 2.462417e-02 0.000000e+00 1.687132e+00
      endloop
   endfacet
   facet normal -9.723700e-01 0.000000e+00 -2.334450e-01
      outer loop
         vertex 9.788759e-02 6.000000e+00 1.381967e+00
         vertex 2.462417e-02 0.000000e+00 1.687132e+00
         vertex 2.462417e-02 6.000000e+00 1.687132e+00
      endloop
   endfacet
   facet normal -9.969171e-01 -0.000000e+00 -7.846166e-02
      outer loop
         vertex 2.462417e-02 6.000000e+00 1.687132e+00
         vertex 2.462417e-02 0.000000e+00 1.687132e+00
         vertex 0.000000e+00 0.000000e+00 2.000001e+00
      endloop
   endfacet
   facet normal -9.969171e-01 0.000000e+00 -7.846166e-02
      outer loop
         vertex 2.462417e-02 6.000000e+00 1.687132e+00
         vertex 0.000000e+00 0.000000e+00 2.000001e+00
         vertex 0.000000e+00 6.000000e+00 2.000001e+00
      endloop
   endfacet
endsolid